<?xml version="1.0" encoding="iso-8859-1"?>
<!-- Generator: Adobe Illustrator 19.0.0, SVG Export Plug-In . SVG Version: 6.00 Build 0)  -->
<svg version="1.1" id="Capa_1" xmlns="http://www.w3.org/2000/svg" xmlns:xlink="http://www.w3.org/1999/xlink" x="0px" y="0px"
	 width="18px" height="18px" viewBox="0 0 481.546 481.546" style="enable-background:new 0 0 481.546 481.546;" xml:space="preserve">
<g>
	<g>
		<path d="M440.112,171.514h-8.129c-7.308-49.983-50.457-88.492-102.435-88.492h-22.022C303.202,36.524,263.97,0,216.362,0H111.873
			c-50.49,0-91.567,41.077-91.567,91.568v377.978c0,6.627,5.373,12,12,12s12-5.373,12-12V91.568C44.306,54.311,74.617,24,111.873,24
			h104.488c34.359,0,62.791,25.788,67.007,59.023h-19.286c-51.979,0-95.128,38.508-102.435,88.492h-8.127
			c-11.67,0-21.13,9.459-21.13,21.128c0,11.668,9.46,21.129,21.13,21.129h286.591c11.67,0,21.129-9.461,21.129-21.129
			C461.241,180.973,451.782,171.514,440.112,171.514z"/>
		<path d="M206.621,241.9c-6.627,0-12,5.373-12,12v37c0,6.627,5.373,12,12,12s12-5.373,12-12v-37
			C218.621,247.273,213.248,241.9,206.621,241.9z"/>
		<path d="M307.621,241.9c-6.627,0-12,5.373-12,12v37c0,6.627,5.373,12,12,12s12-5.373,12-12v-37
			C319.621,247.273,314.248,241.9,307.621,241.9z"/>
		<path d="M408.621,241.9c-6.627,0-12,5.373-12,12v37c0,6.627,5.373,12,12,12s12-5.373,12-12v-37
			C420.621,247.273,415.248,241.9,408.621,241.9z"/>
		<path d="M206.621,396.9c-6.627,0-12,5.373-12,12v37c0,6.627,5.373,12,12,12s12-5.373,12-12v-37
			C218.621,402.273,213.248,396.9,206.621,396.9z"/>
		<path d="M307.621,396.9c-6.627,0-12,5.373-12,12v37c0,6.627,5.373,12,12,12s12-5.373,12-12v-37
			C319.621,402.273,314.248,396.9,307.621,396.9z"/>
		<path d="M408.621,396.9c-6.627,0-12,5.373-12,12v37c0,6.627,5.373,12,12,12s12-5.373,12-12v-37
			C420.621,402.273,415.248,396.9,408.621,396.9z"/>
		<path d="M258.621,317.9c-6.627,0-12,5.373-12,12v37c0,6.627,5.373,12,12,12c6.627,0,12-5.373,12-12v-37
			C270.621,323.273,265.248,317.9,258.621,317.9z"/>
		<path d="M359.621,317.9c-6.627,0-12,5.373-12,12v37c0,6.627,5.373,12,12,12s12-5.373,12-12v-37
			C371.621,323.273,366.248,317.9,359.621,317.9z"/>
	</g>
</g>
<g>
</g>
<g>
</g>
<g>
</g>
<g>
</g>
<g>
</g>
<g>
</g>
<g>
</g>
<g>
</g>
<g>
</g>
<g>
</g>
<g>
</g>
<g>
</g>
<g>
</g>
<g>
</g>
<g>
</g>
</svg>
